# xmcd CD database file
#
# Track frame offsets:
#	150
#	11290
#	27520
#	42565
#	53670
#	65275
#	83083
#	93715
#	108278
#	118683
#
# Disc length: 1747 seconds
#
# Revision: 1
# Processed by: cddbd v1.5.1PL0 Copyright (c) Steve Scherf et al.
# Submitted via: CDex 1.51
#
DISCID=7a06d10a
DTITLE=Toxic Reasons - Anything For Money
DYEAR=1989
DGENRE=Speed Metal
TTITLE0=Just Another Day
TTITLE1=Shoot To Kill
TTITLE2=Screamin´
TTITLE3=Shut You Down
TTITLE4=Bad Georgia Road
TTITLE5=Commited
TTITLE6=Take This City
TTITLE7=Anything For Money
TTITLE8=Swingin´ The Hammer
TTITLE9=Wildin´
EXTD=YEAR: 1989
EXTT0=
EXTT1=
EXTT2=
EXTT3=
EXTT4=
EXTT5=
EXTT6=
EXTT7=
EXTT8=
EXTT9=
PLAYORDER=
